<?xml version="1.0" encoding="utf-8"?>
<!-- Generator: Adobe Illustrator 26.1.0, SVG Export Plug-In . SVG Version: 6.00 Build 0)  -->
<svg version="1.1" id="Layer_1" xmlns="http://www.w3.org/2000/svg" xmlns:xlink="http://www.w3.org/1999/xlink" x="0px" y="0px"
	 viewBox="0 0 104.8 54.6" style="enable-background:new 0 0 104.8 54.6;" xml:space="preserve">
<style type="text/css">
	.st0{fill:#6FDCBF;}
</style>
<g>
	<g>
		<path class="st0" d="M50.8,2.7c1.6,0,2.4,1,2,3.4C50.9,17.2,50,31.7,50,39.6c0,3.4,0,4.2,0.4,7.6c0.4-1.2,5.8-21,11-21
			c2.9,0,3.5,6.9,4.1,10.4c0.9,4.7,2,10.8,3.8,10.8c2.2,0,4.3-5.1,6.7-12.6c0.1-0.4,0.4-0.5,0.6-0.5c0.4,0.1,0.6,0.6,0.4,1.5
			C74.5,47.1,70.2,52,67.8,52c-4.3,0-5.5-8.1-6.6-14.2c-0.7-3.6-0.8-7.3-1.7-7.3c-1.6,0-5.7,12.1-7.2,18.6c-0.5,2.1-0.9,5.5-2.7,5.5
			c-1.3,0-2.6-1-3-3.4c-0.7-4.4-0.8-6.5-0.7-11.8c0-8.6,0.8-24,2.9-34.7C49.1,3.1,49.9,2.7,50.8,2.7L50.8,2.7z"/>
	</g>
	<g>
		<path class="st0" d="M16.2,30.8c-0.6,0.8-1.5,1.1-2.4,1.1c-1.1,0-2.6-0.8-2.6-2.5c0-1.2,0.7-2.5,2-3.3c0.3-0.2,0.4-0.5,0.4-0.8
			c0-1.4-1.4-3-3.1-3c-3.1,0-6,3.4-6.1,6.8c0,4.3,3.8,7.8,7,11c4.6-2.6,9.3-5.9,12.5-10.8c0.5-0.7,0.9-0.8,1.2-0.6s0.4,0.7,0.1,1.3
			c-2.4,4.4-7.9,8.6-12.5,11.4c1.3,1.5,3.1,2.7,3.1,5.2c0,4.7-5.1,6.6-8.7,6.6s-5.5-1.7-5.5-4c0-3,3.1-5.2,5.4-6.6
			C3.8,39.6,0,36,0,32.3c0-6.2,5.2-11.8,10.8-11.8c3.1,0,6.3,2,6.4,6.3C17.3,28,17,29.7,16.2,30.8L16.2,30.8z M11.5,48
			c-0.1-1.7-2-3.3-3-4.2c-1.1,0.8-4,2.8-4,4.9c0,1.4,0.8,2.4,3,2.4C8.9,51.1,11.5,50.2,11.5,48L11.5,48z"/>
	</g>
	<g>
		<path class="st0" d="M48.8,30.7c0.3,0,0.5,0.5,0.3,1.4c-0.6,3-3.8,15.4-8,15.4c-3.5,0-4.8-7.2-5.1-12.7c-1.2,7-4.1,17.5-9.8,17.4
			c-4.7-0.1-6.5-6.8-6.3-12.3c0.3-6.3,2.5-14.6,7.7-17.5c1.1-0.6,2.3-0.9,3.3-0.9c2.1,0.1,4,1.4,5.1,3.4c0.4-0.6,1.2-1.1,2-1.1
			c0.8,0,1.6,0.6,1.5,2.2c0,1.8,0.5,16.9,3.2,16.9c1.8,0,4.8-9.3,5.3-10.8C48.1,31,48.5,30.7,48.8,30.7L48.8,30.7z M34.7,30.5
			c-0.2-0.8-0.3-1.9-0.6-3.1c-0.4-1.8-1.2-3.7-2.9-3.7c-4.6-0.1-6.7,10-6.9,14.9c-0.1,2.8-0.2,9.5,3.2,9.5
			C31.3,48.1,33.9,37,34.7,30.5L34.7,30.5z"/>
	</g>
	<g>
		<path class="st0" d="M81.1,49.7c2.7-0.2,5.6-7.6,6.5-11c0.2-0.6,0.5-0.7,0.7-0.7c0.3,0.1,0.5,0.5,0.4,1.1
			c-0.7,4.8-3.8,13.1-8.6,13.7c-8.4,1-6.1-15.2-5-19c0.3-1,1.1-1.5,1.9-1.5c1.3,0,2.7,0.9,2.3,2.1C78.4,38,77.2,50,81.1,49.7
			L81.1,49.7z M75.9,20.6c0-1.6,1.6-3.3,3.2-3.4c1.4,0,2.7,0.7,2.7,2.6c0,1.7-1.7,3.3-3.4,3.3C77.3,23.1,75.9,22.2,75.9,20.6
			L75.9,20.6z"/>
	</g>
	<g>
		<path class="st0" d="M91.1,35.9c0.1,5.5,1.4,13.8,5.3,13.9c4.8,0,7.7-9.3,8.8-13.5c0.3-1,0.8-1.5,1.1-1.5s0.5,0.7,0.3,2
			c-1.1,5.4-4.8,17.1-11.4,17.1c-6.6-0.1-8.7-11.5-8.7-20.1c0-7.2,1-15.2,2.9-22.1c1-3.7,3.7-10.9,8.3-10.9c3,0.1,3.9,2.9,4,6.2
			C101.8,17.1,96.1,27.2,91.1,35.9L91.1,35.9z M91,32.5c4.2-7.2,8.5-16.6,8.5-25.8c0-1.8-0.4-3.3-1.6-3.3c-2.7,0-4.9,12.4-5.4,15.5
			C91.6,23.2,91.1,28.1,91,32.5L91,32.5z"/>
	</g>
</g>
</svg>
